# xmcd CD database file
#
# Track frame offsets:
#	150
#	42694
#	57196
#	68045
#	87716
#	178554
#	211312
#	225236
#	244602
#	263161
#	293147
#	308309
#	314530
#
# Disc length: 4370 seconds
#
# Revision: 0
# Processed by: cddbd v1.5.2PL0 Copyright (c) Steve Scherf et al.
# Submitted via: CDex 1.51
#
DISCID=b211100d
DTITLE=Jim Baker - more questions than answers
DYEAR=2005
DGENRE=Jazz
TTITLE0=watching the interstate
TTITLE1=tolled deadpan
TTITLE2=tocsin du jour
TTITLE3=happenedstance
TTITLE4=post-industrial societies and their precursors
TTITLE5=infinity trap blues
TTITLE6=is it still mime if they're deaf
TTITLE7=mourning doves
TTITLE8=grey comedy
TTITLE9=Hobbesian's choice
TTITLE10=more questions than answers
TTITLE11=airstrip vespers
TTITLE12=through the woods, over the river
EXTD=YEAR: 2005
EXTT0=
EXTT1=
EXTT2=
EXTT3=
EXTT4=
EXTT5=
EXTT6=
EXTT7=
EXTT8=
EXTT9=
EXTT10=
EXTT11=
EXTT12=
PLAYORDER=
